<?xml version="1.0" encoding="UTF-8"?><svg xmlns="http://www.w3.org/2000/svg" viewBox="0 0 858.38 118.92"><defs><style>.e{fill:#011856;}.f{fill:#0072bc;}.g{fill:#7da7d9;}.h{fill:#8692a0;}.i{fill:#00285e;}</style></defs><g id="a"><rect class="i" x="674.22" y="19.28" width="27.72" height="95.95"/><path class="i" d="m751.38,115.23v-11.75h-.28c-2.94,9.23-12.46,13.15-21.7,13.15-5.88,0-11.62-1.4-15.96-5.45-5.04-5.04-5.6-11.33-5.6-18.05v-49.37h27.72v43.21c0,4.62-.13,9.52,6.16,9.52,2.8,0,5.46-1.54,6.72-4.06,1.26-2.38,1.4-4.89,1.4-7.55v-41.12h27.72v71.47h-26.18Z"/><path class="i" d="m830.39,71.03c0-6.99-2.25-12.31-10.08-12.31-7.28,0-10.22,5.73-9.94,12.31h20.03Zm28,20.28c-4.34,17.35-19.74,25.32-36.68,25.32-10.51,0-20.72-2.24-28.84-9.37-7.7-6.85-11.76-16.64-11.76-26.86,0-9.65,3.78-20.14,10.5-27,7.28-7.55,18.2-11.05,28.42-11.05,23.8,0,38.36,15.39,38.36,38.88v3.78h-47.88c-.42,7.69,2.38,13.29,10.78,13.29,6.3,0,9.8-2.52,10.92-8.67l26.18,1.68Z"/><path class="f" d="m167.97,82.5c2.53,8.54,8.96,11.61,17.5,11.61,3.78,0,11.34-.56,11.34-5.88,0-5.87-7.42-6.99-11.76-7.83-18.06-3.5-39.48-8.39-39.48-31.2,0-9.37,4.62-18.6,12.32-24.05,7.84-5.46,18.06-7.28,27.58-7.28,16.66,0,32.76,6.86,38.64,23.5l-24.36,7.41c-2.8-7.14-8.12-9.65-15.54-9.65-3.92,0-9.52,1.12-9.52,6.16s7,6.01,10.64,6.85c9.1,1.82,18.77,3.36,27.16,7.69,9.38,5.04,14.29,13.99,14.29,24.48,0,23.08-22.96,32.31-42.84,32.31s-38.08-8.39-43.26-29.23l27.3-4.9Z"/><path class="f" d="m258.32,79.15c0,19.16,4.62,20.56,9.66,20.56s9.66-1.4,9.66-20.56c0-6.86-.14-19.31-9.66-19.31s-9.66,12.45-9.66,19.31m49,.98c0,21.68-17.5,36.51-39.34,36.51s-39.34-14.83-39.34-36.51c0-22.94,16.94-37.76,39.34-37.76s39.34,14.83,39.34,37.76"/><path class="f" d="m353.57,115.23v-11.75h-.28c-2.94,9.23-12.46,13.15-21.7,13.15-5.88,0-11.62-1.4-15.96-5.45-5.04-5.04-5.6-11.33-5.6-18.05v-49.37h27.72v43.21c0,4.62-.14,9.52,6.16,9.52,2.8,0,5.46-1.54,6.72-4.06,1.26-2.38,1.4-4.89,1.4-7.55v-41.12h27.72v71.47h-26.18Z"/><path class="f" d="m410.88,58.45c2.38-9.93,7.56-16.92,18.62-16.09l3.78.28v25.04c-1.68-.42-3.5-.7-5.32-.7-4.48,0-9.1.84-11.34,4.9-1.96,3.49-1.96,8.11-1.96,12.31v31.05h-27.72V43.76h23.66v14.68h.28Z"/><path class="f" d="m505.27,88.38c-2.52,18.46-15.68,28.26-33.88,28.26-10.36,0-18.76-2.38-26.32-9.79-7.29-7.27-10.64-16.93-10.64-27.13,0-21.54,14.84-37.34,36.83-37.34,17.64,0,31.64,10.35,33.74,28.26l-24.5,2.09-.14-.7c-.98-4.9-2.1-10.49-8.26-10.49-8.82,0-8.82,11.61-8.82,17.9,0,6.71.14,17.62,9.24,17.62,6.02,0,8.26-5.45,8.96-10.63l23.8,1.96Z"/><path class="f" d="m556.98,71.03c0-6.99-2.25-12.31-10.08-12.31-7.28,0-10.22,5.73-9.94,12.31h20.03Zm28,20.28c-4.34,17.35-19.74,25.32-36.68,25.32-10.51,0-20.72-2.24-28.84-9.37-7.7-6.85-11.76-16.64-11.76-26.86,0-9.65,3.78-20.14,10.5-27,7.28-7.55,18.2-11.05,28.42-11.05,23.8,0,38.36,15.39,38.36,38.88v3.78h-47.88c-.42,7.69,2.38,13.29,10.78,13.29,6.3,0,9.8-2.52,10.92-8.67l26.18,1.68Z"/><path class="i" d="m630.35,93.83c2.94,0,6.16.14,8.54-1.81,2.1-1.55,3.5-4.06,3.5-6.71,0-3.22-1.82-6.16-4.62-7.56-2.52-1.26-5.88-1.26-8.54-1.26h-11.62v17.34h12.74Zm-.84-37.76c2.8,0,6.16.14,8.26-1.82,1.82-1.68,2.8-4.06,2.8-6.3,0-7.13-5.87-8.11-11.48-8.11h-11.48v16.22h11.9Zm-38.92-36.79h46.9c7.28,0,14.7.56,20.72,4.9,6.44,4.61,10.22,12.45,10.22,20.28,0,10.07-6.44,18.6-16.24,20.84v.28c11.06,1.96,18.62,10.35,18.62,21.82,0,8.25-2.94,17.48-9.8,22.38-7.42,5.31-17.78,5.46-26.46,5.46h-43.96V19.28Z"/></g><g id="b"><g id="c"><path class="g" d="m44.64,43.15c-7.95-2.27-16.47-4.2-25.61-5.71,3.28-5.34,7.45-10.08,12.3-14.02,12.57,2.6,24.16,6.04,34.65,10.05"/><path class="g" d="m65.98,33.47c7.73,2.95,14.86,6.21,21.34,9.68,7.95-2.27,16.47-4.2,25.61-5.71-3.28-5.34-7.45-10.08-12.3-14.02-12.57,2.6-24.16,6.04-34.65,10.05Z"/><path class="f" d="m44.64,43.15c6.49-3.47,13.62-6.73,21.34-9.68,7.73,2.95,14.86,6.21,21.34,9.68-7.67,2.19-14.79,4.69-21.34,7.43-6.55-2.74-13.67-5.24-21.34-7.43Z"/><path class="h" d="m65.98,78.67c15.84,8.47,27.14,19.01,33.72,30.81,4.35-3.37,8.1-7.28,11.19-11.6-5.66-9.04-14.87-18.47-27.68-26.91-6.24,2.32-11.98,4.9-17.23,7.71Z"/><path class="h" d="m98.59,49.8c6.24,4.05,11.66,8.27,16.2,12.53,1.97-.38,3.97-.74,6-1.08-.47-5.35-1.71-10.48-3.61-15.28-6.51,1.05-12.71,2.34-18.59,3.83Z"/><path class="g" d="m95.47,66.93c4.89-1.42,10.03-2.71,15.42-3.83,1.28-.27,2.59-.52,3.9-.77,2.28,2.14,4.34,4.28,6.16,6.41-.32,6.84-1.88,13.42-4.56,19.49-4.53-7.08-11.52-14.4-20.92-21.3Z"/><path class="i" d="m48.75,70.97c5.15-3.4,10.9-6.63,17.23-9.63,6.33,2.99,12.07,6.23,17.23,9.63-6.24,2.32-11.98,4.9-17.23,7.71-5.25-2.81-10.99-5.38-17.23-7.71Z"/><path class="h" d="m48.75,70.97c-12.81,8.45-22.02,17.87-27.68,26.91,3.09,4.32,6.84,8.23,11.19,11.6,6.58-11.79,17.88-22.33,33.71-30.81-5.25-2.81-10.99-5.38-17.23-7.71Z"/><path class="i" d="m78.07,56.22c6.36-2.41,13.2-4.57,20.52-6.42,6.24,4.05,11.66,8.27,16.2,12.53-1.31.25-2.62.5-3.9.77-5.39,1.13-10.53,2.41-15.42,3.83-5.09-3.73-10.9-7.34-17.4-10.71Z"/><path class="g" d="m78.07,56.22c6.36-2.41,13.2-4.57,20.52-6.42-3.51-2.28-7.26-4.5-11.27-6.65-7.67,2.19-14.79,4.69-21.34,7.43,4.27,1.79,8.3,3.68,12.09,5.64Z"/><path class="h" d="m95.47,66.93c-4.28,1.24-8.37,2.59-12.26,4.03-5.15-3.4-10.9-6.63-17.23-9.63,3.81-1.8,7.85-3.52,12.09-5.12,6.51,3.37,12.31,6.98,17.4,10.71Z"/><path class="h" d="m33.37,49.8c-6.24,4.05-11.66,8.27-16.2,12.53-1.97-.38-3.97-.74-6-1.08.47-5.35,1.71-10.48,3.61-15.28,6.51,1.05,12.71,2.34,18.59,3.83Z"/><path class="g" d="m36.5,66.93c-4.89-1.42-10.03-2.71-15.42-3.83-1.28-.27-2.59-.52-3.9-.77-2.28,2.14-4.34,4.28-6.16,6.41.32,6.84,1.88,13.42,4.56,19.49,4.53-7.08,11.52-14.4,20.92-21.3Z"/><path class="i" d="m53.89,56.22c-6.36-2.41-13.2-4.57-20.52-6.42-6.24,4.05-11.66,8.27-16.2,12.53,1.31.25,2.62.5,3.9.77,5.39,1.13,10.53,2.41,15.42,3.83,5.09-3.73,10.9-7.34,17.4-10.71Z"/><path class="g" d="m53.89,56.22c-6.36-2.41-13.2-4.57-20.52-6.42,3.51-2.28,7.26-4.5,11.27-6.65,7.67,2.19,14.79,4.69,21.34,7.43-4.27,1.79-8.3,3.68-12.09,5.64Z"/><path class="h" d="m36.49,66.93c4.28,1.24,8.37,2.59,12.26,4.03,5.15-3.4,10.9-6.63,17.23-9.63-3.81-1.8-7.85-3.52-12.09-5.12-6.51,3.37-12.31,6.98-17.4,10.71Z"/></g><g id="d"><path class="e" d="m26.87,118.92C9.8,106.32,0,87,0,65.92,0,29.57,29.6,0,65.98,0s65.98,29.57,65.98,65.92c0,21.09-9.79,40.41-26.87,53.01l-2.62-3.55c15.94-11.76,25.08-29.79,25.08-49.46,0-33.91-27.62-61.51-61.57-61.51S4.41,32,4.41,65.92c0,19.67,9.14,37.7,25.08,49.46l-2.62,3.55Z"/></g></g></svg>